<svg width="40" height="40" viewBox="0 0 40 40" fill="none" xmlns="http://www.w3.org/2000/svg">
<path d="M39.9999 19.5C39.9999 25.8103 34.6461 31 28 31C21.4154 31 16 25.8103 16 19.5C16 13.1897 21.3538 8 27.9384 8C34.6461 8 39.9999 13.1897 39.9999 19.5Z" fill="black"/>
<path d="M23.9384 19.559C23.9384 18.7333 23.8153 17.9077 23.6922 17.141H16.3076C16.3692 16.7282 16.4923 16.3744 16.6153 15.9026H23.1999C23.0769 15.4897 22.8922 15.0769 22.7076 14.6641H17.1076C17.2923 14.2513 17.5384 13.8974 17.7846 13.4256H22.0307C21.7846 13.0128 21.4769 12.6 21.1076 12.1872H18.7692C19.1384 11.7744 19.5076 11.4205 19.9999 11.0077C17.9076 9.12051 15.0769 8 11.9384 8C5.41537 8.17692 0 13.1897 0 19.5C0 25.8103 5.35383 31 12 31C15.1384 31 17.9076 29.8205 20.0615 27.9923C20.4923 27.6385 20.8615 27.2256 21.2923 26.7538H18.8307C18.523 26.4 18.2153 25.9872 17.9692 25.5744H22.1538C22.3999 25.2205 22.6461 24.8077 22.8307 24.3359H17.2307C17.0461 23.9821 16.8615 23.5692 16.7384 23.0974H23.323C23.6922 22.0359 23.9384 20.8564 23.9384 19.559Z" fill="black"/>
<path d="M16.2465 22.4487L16.4312 21.3872C16.3696 21.3872 16.2465 21.4461 16.1235 21.4461C15.6927 21.4461 15.6312 21.2102 15.6927 21.0923L16.0619 18.9692H16.7388L16.9235 17.7897H16.3081L16.4312 17.082H15.1389C15.1389 17.082 14.4004 21.0923 14.4004 21.5641C14.4004 22.2718 14.8312 22.6256 15.4465 22.6256C15.8158 22.6256 16.1235 22.5077 16.2465 22.4487Z" fill="white"/>
<path d="M16.6758 20.5025C16.6758 22.2128 17.9065 22.6256 18.8912 22.6256C19.8142 22.6256 20.245 22.4487 20.245 22.4487L20.4912 21.2692C20.4912 21.2692 19.8142 21.5641 19.1373 21.5641C17.7219 21.5641 17.9681 20.5615 17.9681 20.5615H20.5527C20.5527 20.5615 20.7373 19.7949 20.7373 19.441C20.7373 18.6743 20.3065 17.6718 18.8912 17.6718C17.6604 17.6128 16.6758 18.9692 16.6758 20.5025ZM18.8912 18.7333C19.5681 18.7333 19.445 19.5 19.445 19.559H18.0296C18.0912 19.5 18.2142 18.7333 18.8912 18.7333Z" fill="white"/>
<path d="M26.953 22.4486L27.1992 21.0922C27.1992 21.0922 26.5838 21.3871 26.0915 21.3871C25.2299 21.3871 24.7992 20.7383 24.7992 19.9717C24.7992 18.4973 25.5376 17.7306 26.4607 17.7306C27.0761 17.7306 27.6299 18.0845 27.6299 18.0845L27.8145 16.7871C27.8145 16.7871 27.0761 16.4922 26.3376 16.4922C24.8607 16.4922 23.4453 17.7306 23.4453 20.0306C23.4453 21.564 24.1838 22.5665 25.7222 22.5665C26.2761 22.6255 26.953 22.4486 26.953 22.4486Z" fill="white"/>
<path d="M9.29257 17.6128C8.43104 17.6128 7.75411 17.8487 7.75411 17.8487L7.5695 18.9102C7.5695 18.9102 8.12334 18.6743 8.98488 18.6743C9.41565 18.6743 9.78488 18.7333 9.78488 19.0872C9.78488 19.323 9.72334 19.382 9.72334 19.382H9.1695C8.06181 19.382 6.89258 19.7948 6.89258 21.2102C6.89258 22.3307 7.63104 22.5666 8.12334 22.5666C8.98488 22.5666 9.41565 22.0359 9.47719 22.0359L9.41565 22.5077H10.4618L10.9541 19.1461C10.9541 17.6718 9.72334 17.6128 9.29257 17.6128ZM9.53873 20.3256C9.53873 20.5025 9.41565 21.5051 8.67719 21.5051C8.30796 21.5051 8.18488 21.2102 8.18488 21.0333C8.18488 20.7384 8.3695 20.3256 9.35411 20.3256C9.47719 20.3256 9.53873 20.3256 9.53873 20.3256Z" fill="white"/>
<path d="M12.1849 22.5665C12.4926 22.5665 14.0926 22.6255 14.0926 20.9742C14.0926 19.4409 12.5542 19.7358 12.5542 19.146C12.5542 18.8511 12.8003 18.7332 13.2311 18.7332C13.4157 18.7332 14.0926 18.7922 14.0926 18.7922L14.2772 17.6717C14.2772 17.6717 13.8465 17.5537 13.0465 17.5537C12.1234 17.5537 11.1388 17.9076 11.1388 19.146C11.1388 20.5614 12.7388 20.4435 12.7388 20.9742C12.7388 21.3281 12.308 21.387 12.0003 21.387C11.4465 21.387 10.8311 21.2101 10.8311 21.2101L10.6465 22.3306C10.7696 22.4486 11.1388 22.5665 12.1849 22.5665Z" fill="white"/>
<path d="M37.539 16.6692L37.2928 18.3205C37.2928 18.3205 36.8005 17.7307 36.062 17.7307C34.8928 17.7307 33.9082 19.0871 33.9082 20.6794C33.9082 21.682 34.4005 22.6846 35.5082 22.6846C36.2467 22.6846 36.739 22.2128 36.739 22.2128L36.6774 22.6256H37.9697L38.8928 16.7871L37.539 16.6692ZM36.9236 19.8538C36.9236 20.5025 36.6159 21.3871 35.8774 21.3871C35.4467 21.3871 35.2005 21.0333 35.2005 20.3846C35.2005 19.382 35.6313 18.7923 36.2467 18.7923C36.6774 18.8512 36.9236 19.1461 36.9236 19.8538Z" fill="white"/>
<path d="M2.33819 22.5077L3.07665 18.1435L3.19972 22.5077H4.06126L5.7228 18.1435L5.04587 22.5077H6.39972L7.44587 16.6692H5.35356L4.06126 20.2666L3.99972 16.6692H2.15357L1.10742 22.5077H2.33819Z" fill="white"/>
<path d="M22.0306 22.5076C22.3998 20.5025 22.4614 18.8512 23.3845 19.1461C23.5075 18.3794 23.6922 18.0256 23.8152 17.7307H23.5691C23.0152 17.7307 22.5229 18.4384 22.5229 18.4384L22.646 17.7897H21.4152L20.6152 22.5076H22.0306Z" fill="white"/>
<path d="M29.9078 17.6128C29.0463 17.6128 28.3693 17.8487 28.3693 17.8487L28.1847 18.9102C28.1847 18.9102 28.7386 18.6743 29.6001 18.6743C30.0309 18.6743 30.4001 18.7333 30.4001 19.0872C30.4001 19.323 30.3386 19.382 30.3386 19.382H29.7847C28.677 19.382 27.5078 19.7948 27.5078 21.2102C27.5078 22.3307 28.2463 22.5666 28.7386 22.5666C29.6001 22.5666 30.0309 22.0359 30.0924 22.0359L30.0309 22.5077H31.2001L31.6924 19.1461C31.6924 17.6718 30.3386 17.6128 29.9078 17.6128ZM30.2155 20.3256C30.2155 20.5025 30.0924 21.5051 29.354 21.5051C28.9847 21.5051 28.8617 21.2102 28.8617 21.0333C28.8617 20.7384 29.0463 20.3256 30.0309 20.3256C30.154 20.3256 30.154 20.3256 30.2155 20.3256Z" fill="white"/>
<path d="M32.6771 22.5076C33.0463 20.5025 33.1079 18.8512 34.0309 19.1461C34.154 18.3794 34.3386 18.0256 34.4617 17.7307H34.2156C33.6617 17.7307 33.1694 18.4384 33.1694 18.4384L33.2925 17.7897H32.0617L31.2617 22.5076H32.6771Z" fill="white"/>
</svg>
