<svg width="40" height="40" viewBox="0 0 40 40" fill="none" xmlns="http://www.w3.org/2000/svg">
<path d="M9.10861 16.0745C8.97399 15.814 8.76985 15.5953 8.5185 15.4423C8.22916 15.2725 7.91107 15.1566 7.57983 15.1001C7.15824 15.0316 6.73161 14.9981 6.30441 15.0001L4.04862 15.0016C3.92965 15.0068 3.81538 15.0492 3.72212 15.1227C3.62886 15.1963 3.56138 15.2972 3.52932 15.4111L2.01156 21.9761C1.95648 22.198 2.10362 22.384 2.33809 22.384H3.41838C3.53752 22.3806 3.65236 22.339 3.74579 22.2655C3.83922 22.192 3.90625 22.0905 3.93689 21.9761L4.30748 20.3821C4.33822 20.268 4.40519 20.1668 4.49845 20.0934C4.59171 20.0201 4.7063 19.9786 4.8252 19.975H5.13442C6.45548 19.9735 7.47833 19.7055 8.21321 19.1687C8.95203 18.6311 9.31633 17.9208 9.31633 17.041C9.31554 16.6558 9.25181 16.3323 9.10861 16.0745ZM6.77886 18.2193C6.45233 18.4568 5.99834 18.5756 5.41295 18.5756H5.14858C4.91332 18.5756 4.76934 18.3912 4.82048 18.1662L5.14543 16.7722C5.19107 16.5487 5.4279 16.3636 5.66001 16.3651L6.01407 16.3628C6.42715 16.3628 6.74266 16.4339 6.95353 16.5714C7.16203 16.7074 7.26668 16.9238 7.26511 17.2106C7.2714 17.6466 7.10381 17.9818 6.77886 18.2193ZM14.3181 17.0129C13.9105 16.7847 13.2669 16.6706 12.3873 16.6706C11.9521 16.6706 11.5186 16.7042 11.0804 16.7714C10.757 16.8207 10.7255 16.83 10.5264 16.873C10.1157 16.9621 10.0512 17.3692 10.0512 17.3692L9.91902 17.9091C9.84428 18.2537 10.0441 18.2404 10.1275 18.2115C10.3069 18.1584 10.4068 18.1037 10.7735 18.0224C11.1236 17.9435 11.4926 17.8841 11.7853 17.888C12.2173 17.888 12.5478 17.9333 12.7681 18.0255C12.9852 18.1193 13.0938 18.2803 13.0938 18.5131L13.0749 18.6647L12.9191 18.76C12.3062 18.7983 11.8632 18.8546 11.3258 18.9319C10.8003 19.0046 10.3392 19.1319 9.956 19.3062C9.5445 19.4859 9.23922 19.7273 9.02599 20.0344C8.81985 20.3431 8.71677 20.7173 8.71677 21.1565C8.71677 21.5698 8.86627 21.9113 9.1566 22.1754C9.44851 22.4348 9.83405 22.5614 10.2951 22.5614C10.587 22.5598 10.8128 22.5371 10.9734 22.4988L11.4966 22.3199L11.9396 22.0761L12.3471 21.8089L12.3526 21.8167L12.3117 21.9886L12.3094 21.9956V21.9972C12.2653 22.2066 12.3928 22.3785 12.5981 22.3988L12.6021 22.4035H13.6052L13.6194 22.3973C13.728 22.383 13.83 22.3373 13.9127 22.2659C13.9954 22.1945 14.0551 22.1005 14.0844 21.9956L14.872 18.61L14.9129 18.3342L14.9318 18.0755C14.935 17.5958 14.7264 17.2403 14.3181 17.0129ZM12.5761 20.8197L12.4077 21.04L11.9828 21.258C11.8041 21.3341 11.6123 21.3752 11.4179 21.3792C11.152 21.3792 10.9435 21.3409 10.8026 21.2627L10.5941 20.8603C10.5941 20.6423 10.6445 20.4696 10.7523 20.3368L11.2102 20.0274C11.4061 19.9618 11.6453 19.9063 11.9222 19.868C12.1693 19.8375 12.6571 19.782 12.7209 19.7805L12.7956 19.911C12.7807 19.9852 12.6422 20.5603 12.5761 20.8197ZM33.9396 17.0176C33.5297 16.7894 32.8869 16.6745 32.0096 16.6745C31.5745 16.6745 31.1401 16.7081 30.7035 16.7777C30.3793 16.8246 30.347 16.8347 30.1472 16.8769C29.7373 16.9652 29.6735 17.3739 29.6735 17.3739L29.5413 17.913C29.4674 18.2576 29.6625 18.242 29.7538 18.2154C29.934 18.1623 30.0307 18.1099 30.3942 18.0255C30.7428 17.9474 31.115 17.8896 31.4084 17.8911C31.8388 17.8911 32.1693 17.9372 32.3888 18.0294C32.6075 18.1232 32.7146 18.2857 32.7146 18.5162L32.698 18.667L32.5438 18.7647C31.9246 18.8014 31.4808 18.8577 30.9489 18.935C30.4249 19.0077 29.9623 19.1343 29.5783 19.3093C29.1684 19.4898 28.8592 19.7313 28.6483 20.0391C28.4398 20.3477 28.3383 20.7212 28.3383 21.1565C28.3383 21.5729 28.4862 21.9144 28.7805 22.1769C29.074 22.4356 29.4556 22.5653 29.9166 22.5653C30.207 22.5621 30.4328 22.5434 30.5941 22.502L31.1157 22.3254L31.5627 22.0816L31.9671 21.8112L31.9742 21.8198L31.9372 21.9933L31.9332 21.9964L31.9348 21.9996C31.886 22.209 32.0143 22.3824 32.222 22.4012L32.2236 22.4051H33.226L33.2425 22.3996C33.3508 22.3848 33.4522 22.3384 33.534 22.2664C33.6158 22.1944 33.6743 22.0999 33.702 21.9949L34.492 18.6139L34.5337 18.3365L34.5565 18.0771C34.5573 17.5989 34.3511 17.2449 33.9396 17.0176ZM32.2015 20.8244L32.0261 21.0471L31.6051 21.2635C31.427 21.3389 31.2361 21.38 31.0426 21.3846C30.768 21.3846 30.565 21.3456 30.4281 21.2674L30.2172 20.8666C30.2172 20.6478 30.2684 20.4767 30.3714 20.3415C30.4761 20.2141 30.6358 20.1094 30.8341 20.0329C31.0658 19.9587 31.3039 19.9056 31.5453 19.8742C31.7908 19.8438 32.2771 19.7867 32.34 19.7859L32.4164 19.9164C32.4053 19.9907 32.2661 20.5634 32.2015 20.8244ZM28.727 16.0987C28.5888 15.8386 28.3835 15.6196 28.1322 15.4642C27.844 15.292 27.5254 15.1759 27.1935 15.122C26.7735 15.0531 26.3484 15.0201 25.9228 15.0235L23.6638 15.0251C23.5456 15.0304 23.4321 15.0727 23.3395 15.146C23.2469 15.2192 23.1801 15.3197 23.1485 15.433L21.6292 22.0011C21.5741 22.2238 21.7251 22.4082 21.9549 22.4082L23.0368 22.4066C23.1555 22.4024 23.2698 22.3607 23.3632 22.2877C23.4565 22.2146 23.5241 22.114 23.5561 22.0003L23.9219 20.4056C23.9538 20.2918 24.0212 20.191 24.1146 20.1178C24.208 20.0446 24.3224 20.0028 24.4412 19.9985H24.7504C26.0731 19.9985 27.0983 19.7281 27.8363 19.1929C28.5657 18.6514 28.9347 17.9427 28.9347 17.0621C28.9308 16.6785 28.8639 16.3542 28.727 16.0987ZM26.3972 18.2467C26.0715 18.4795 25.6167 18.5983 25.0345 18.5983H24.7654C24.7138 18.6014 24.6622 18.5921 24.6149 18.5713C24.5677 18.5506 24.5261 18.5188 24.4938 18.4788C24.4614 18.4388 24.4392 18.3916 24.4289 18.3413C24.4187 18.291 24.4207 18.239 24.4349 18.1896L24.7622 16.798C24.7923 16.6838 24.8589 16.5824 24.952 16.509C25.045 16.4356 25.1596 16.3942 25.2784 16.3909L25.6285 16.3886C26.044 16.3909 26.3555 16.4589 26.568 16.5964C26.7796 16.7339 26.8796 16.9496 26.8819 17.2356C26.8843 17.6716 26.7214 18.0076 26.3972 18.2467ZM37.9901 15.4853C38.0397 15.2611 37.8981 15.079 37.666 15.0821H36.6982C36.4999 15.0821 36.3213 15.2282 36.234 15.408L36.1805 15.4908L36.1317 15.7033L34.7791 21.8089L34.7351 21.9964L34.7367 22.0011C34.6918 22.2019 34.8161 22.3535 35.0081 22.3824L35.0246 22.4051H36.0294C36.2261 22.4051 36.411 22.2566 36.4952 22.0738L36.5471 21.9956L37.9933 15.4861L37.9901 15.4853ZM21.659 16.7527C21.4033 16.7558 20.364 16.7527 20.364 16.7527C20.1311 16.7527 19.8321 16.9394 19.6842 17.1621C19.6842 17.1621 18.1373 19.7984 17.987 20.0633L17.8076 20.061L17.3261 17.1801C17.2726 16.9535 17.0342 16.7597 16.7375 16.7597L15.7698 16.7613C15.5369 16.7613 15.3937 16.9457 15.4464 17.1707C15.4464 17.1707 16.1813 21.3237 16.3284 22.3012C16.3968 22.8403 16.3197 22.9364 16.3197 22.9364L15.363 24.5913C15.2214 24.8164 15.2977 25 15.5298 25L16.6486 24.9984C16.8815 24.9984 17.1876 24.8164 17.3261 24.5906L21.6299 17.3614C21.6299 17.3614 22.0438 16.7441 21.659 16.7527Z" fill="black"/>
</svg>
