<svg width="40" height="40" viewBox="0 0 40 40" fill="none" xmlns="http://www.w3.org/2000/svg">
<g clip-path="url(#clip0_4_11298)">
<path d="M37.3105 14.1714H34.7959C34.0357 14.1714 33.4509 14.4 33.1 15.1428L28.3047 25.8285H31.6965C31.6965 25.8285 32.2813 24.4 32.3983 24.0571C32.7491 24.0571 36.0825 24.0571 36.5503 24.0571C36.6673 24.4571 36.9597 25.7714 36.9597 25.7714H40.0006L37.3105 14.1714ZM33.3339 21.6571C33.6263 20.9714 34.6205 18.4 34.6205 18.4C34.6205 18.4571 34.9129 17.7142 35.0298 17.3142L35.2638 18.3428C35.2638 18.3428 35.907 21.1428 36.024 21.7142H33.3339V21.6571Z" fill="black"/>
<path d="M28.5385 22C28.5385 24.4 26.3163 26 22.866 26C21.404 26 20.0005 25.7143 19.2402 25.3714L19.7081 22.7429L20.1174 22.9143C21.1701 23.3714 21.8718 23.5429 23.1584 23.5429C24.094 23.5429 25.0882 23.2 25.0882 22.4C25.0882 21.8857 24.6788 21.5429 23.3923 20.9714C22.1642 20.4 20.5268 19.4857 20.5268 17.8286C20.5268 15.5429 22.8075 14 26.0239 14C27.2519 14 28.3046 14.2286 28.9478 14.5143L28.48 17.0286L28.2461 16.8C27.6613 16.5714 26.9011 16.3429 25.7899 16.3429C24.5619 16.4 23.9771 16.9143 23.9771 17.3714C23.9771 17.8857 24.6788 18.2857 25.7899 18.8C27.6613 19.6571 28.5385 20.6286 28.5385 22Z" fill="black"/>
<path d="M0 14.2857L0.0584795 14.0571H5.08772C5.78947 14.0571 6.31579 14.2857 6.49123 15.0286L7.60234 20.1714C6.49123 17.4286 3.91813 15.2 0 14.2857Z" fill="black"/>
<path d="M14.6788 14.1714L9.59107 25.7714H6.14077L3.2168 16.0571C5.32206 17.3714 7.07645 19.4285 7.71972 20.8571L8.0706 22.0571L11.2285 14.1143H14.6788V14.1714Z" fill="black"/>
<path d="M16.0233 14.1143H19.2397L17.1929 25.7714H13.9766L16.0233 14.1143Z" fill="black"/>
</g>
<defs>
<clipPath id="clip0_4_11298">
<rect width="40" height="40" fill="white"/>
</clipPath>
</defs>
</svg>
