<svg width="32" height="32" viewBox="0 0 32 32" fill="black" xmlns="http://www.w3.org/2000/svg">
	<g clip-path="url(#clip0_377_1214)">
		<path
			d="M26.8853 17.3333H7.22533L5.97067 6.66667H18.6667V4H5.656L5.6 3.53067C5.4851 2.55813 5.01741 1.66154 4.28558 1.01081C3.55375 0.360072 2.60863 0.000417115 1.62933 0L0 0V2.66667H1.62933C1.95591 2.66671 2.27112 2.78661 2.51516 3.00362C2.75921 3.22063 2.91512 3.51967 2.95333 3.844L5.06667 21.8013C5.18127 22.7741 5.64882 23.671 6.38068 24.322C7.11254 24.973 8.05783 25.3329 9.03733 25.3333H26.6667V22.6667H9.03733C8.71055 22.6666 8.39518 22.5465 8.1511 22.3292C7.90702 22.1119 7.75124 21.8126 7.71333 21.488L7.53867 20H29.1147L30.3147 13.3333H27.6067L26.8853 17.3333Z"
		/>
		<path
			d="M9.33366 32C10.8064 32 12.0003 30.8061 12.0003 29.3333C12.0003 27.8605 10.8064 26.6666 9.33366 26.6666C7.8609 26.6666 6.66699 27.8605 6.66699 29.3333C6.66699 30.8061 7.8609 32 9.33366 32Z"
		/>
		<path
			d="M22.6667 32C24.1394 32 25.3333 30.8061 25.3333 29.3333C25.3333 27.8605 24.1394 26.6666 22.6667 26.6666C21.1939 26.6666 20 27.8605 20 29.3333C20 30.8061 21.1939 32 22.6667 32Z"
		/>
		<path d="M27.9997 4V0H25.333V4H21.333V6.66667H25.333V10.6667H27.9997V6.66667H31.9997V4H27.9997Z"
		/>
	</g>
	<defs>
		<clipPath id="clip0_377_1214">
			<rect width="32" height="32" />
		</clipPath>
	</defs>
</svg>