<svg width="24" height="24" viewBox="0 0 24 24" fill="black" xmlns="http://www.w3.org/2000/svg">
	<path
		d="M11.1092 7.29183C10.9303 6.63374 10.5399 6.05278 9.99806 5.63859C9.45627 5.2244 8.79323 5 8.11125 5C7.42927 5 6.76623 5.2244 6.22444 5.63859C5.68264 6.05278 5.2922 6.63374 5.11333 7.29183H2V8.95846H5.11333C5.2922 9.61656 5.68264 10.1975 6.22444 10.6117C6.76623 11.0259 7.42927 11.2503 8.11125 11.2503C8.79323 11.2503 9.45627 11.0259 9.99806 10.6117C10.5399 10.1975 10.9303 9.61656 11.1092 8.95846H22V7.29183H11.1092ZM8.11083 9.58345C7.8224 9.58345 7.54045 9.49792 7.30063 9.33768C7.06081 9.17744 6.87389 8.94969 6.76351 8.68322C6.65313 8.41675 6.62425 8.12353 6.68052 7.84065C6.73679 7.55776 6.87568 7.29792 7.07964 7.09397C7.28359 6.89003 7.54344 6.75114 7.82633 6.69487C8.10922 6.6386 8.40244 6.66748 8.66891 6.77785C8.93539 6.88823 9.16315 7.07514 9.32339 7.31496C9.48364 7.55478 9.56917 7.83672 9.56917 8.12515C9.56851 8.51171 9.41465 8.88225 9.1413 9.15559C8.86795 9.42894 8.4974 9.58279 8.11083 9.58345ZM15.8892 11.8751C15.2079 11.8775 14.5461 12.1028 14.0049 12.5166C13.4636 12.9304 13.0727 13.5099 12.8917 14.1667H2V15.8333H12.8917C13.0702 16.4916 13.4605 17.0727 14.0023 17.4871C14.544 17.9014 15.2071 18.126 15.8892 18.126C16.5712 18.126 17.2343 17.9014 17.7761 17.4871C18.3178 17.0727 18.7081 16.4916 18.8867 15.8333H22V14.1667H18.8867C18.7057 13.5099 18.3147 12.9304 17.7735 12.5166C17.2322 12.1028 16.5705 11.8775 15.8892 11.8751ZM15.8892 16.4583C15.6007 16.4583 15.3188 16.3728 15.079 16.2125C14.8391 16.0523 14.6522 15.8245 14.5418 15.5581C14.4315 15.2916 14.4026 14.9984 14.4589 14.7155C14.5151 14.4326 14.654 14.1728 14.858 13.9688C15.0619 13.7649 15.3218 13.626 15.6047 13.5697C15.8875 13.5134 16.1808 13.5423 16.4472 13.6527C16.7137 13.7631 16.9415 13.95 17.1017 14.1898C17.262 14.4296 17.3475 14.7116 17.3475 15C17.3471 15.3866 17.1933 15.7573 16.9199 16.0307C16.6465 16.3041 16.2758 16.4579 15.8892 16.4583Z"
	/>
</svg>