<svg width="20" height="20" viewBox="0 0 20 20" fill="white" xmlns="http://www.w3.org/2000/svg">
	<g clip-path="url(#clip0_4_11314)">
		<path
			d="M5.02125 3.73802C6.48374 2.5796 8.31838 1.98501 10.2089 2.05678C12.0994 2.12855 13.9272 2.86217 15.3773 4.13117C16.8275 5.40017 17.809 7.12502 18.1527 9.00836C18.4964 10.8917 18.1807 12.8155 17.26 14.4481L16.0788 13.7437C16.6807 12.6814 16.978 11.4641 16.9385 10.2232C16.899 8.98222 16.5244 7.76463 15.8549 6.70162C15.1854 5.63861 14.2465 4.7705 13.1394 4.19083C12.0322 3.61116 10.7988 3.34192 9.57205 3.41213C8.3453 3.48235 7.17175 3.88934 6.17787 4.58926C5.18399 5.28919 4.40746 6.25549 3.93198 7.38403C3.4565 8.51257 3.3001 9.76055 3.47963 10.9935C3.65917 12.2264 4.16782 13.3975 4.95079 14.3806C5.81252 15.4717 6.97446 16.284 8.28277 16.7099C9.59109 17.1359 10.9841 17.1555 12.2774 16.7662L12.6974 18.0758C10.8993 18.6047 8.95388 18.4787 7.19645 17.7194C5.43903 16.9601 3.97976 15.6151 3.07024 13.9163C2.16072 12.2175 1.85794 10.2713 2.21409 8.41325C2.57024 6.55523 3.56301 4.9018 5.02125 3.73802Z"
		/>
	</g>
	<defs>
		<clipPath id="clip0_4_11314">
			<rect width="20" height="20" fill="white" />
		</clipPath>
	</defs>
</svg>