<svg width="14" height="14" viewBox="0 0 14 14" fill="none" xmlns="http://www.w3.org/2000/svg">
<path d="M6.36546 1.26565C6.51097 0.830616 7.12667 0.830618 7.30331 1.26565L8.77494 4.88982C8.83048 5.02659 8.94225 5.13443 9.08092 5.18504L12.7554 6.5261C13.1965 6.68708 13.2185 7.30238 12.7889 7.46335L9.21045 8.80442C9.07541 8.85503 8.97136 8.96286 8.92561 9.09964L7.7134 12.7238C7.56789 13.1588 6.95219 13.1588 6.77555 12.7238L5.30392 9.09963C5.24838 8.96286 5.13661 8.85503 4.99794 8.80442L1.32345 7.46335C0.882383 7.30238 0.860363 6.68708 1.28991 6.5261L4.86841 5.18504C5.00345 5.13443 5.1075 5.02659 5.15325 4.88982L6.36546 1.26565Z" fill="#C69BBD"/>
</svg>
