<svg width="25" height="24" viewBox="0 0 25 24" fill="none" xmlns="http://www.w3.org/2000/svg">
<path d="M11.3217 5.24253C11.805 3.9366 13.6521 3.9366 14.1353 5.24253L15.1815 8.06995C15.4347 8.75424 15.9743 9.29377 16.6586 9.54699L19.486 10.5932C20.7919 11.0765 20.7919 12.9235 19.486 13.4068L16.6586 14.453C15.9743 14.7062 15.4347 15.2458 15.1815 15.9301L14.1353 18.7575C13.6521 20.0634 11.805 20.0634 11.3217 18.7575L10.2755 15.9301C10.0223 15.2458 9.48276 14.7062 8.79846 14.453L5.97104 13.4068C4.66512 12.9235 4.66512 11.0765 5.97104 10.5932L8.79846 9.54699C9.48276 9.29377 10.0223 8.75425 10.2755 8.06995L11.3217 5.24253Z" fill="#C69BBD" stroke="black"/>
</svg>
