<svg width="65" height="65" viewBox="0 0 65 65" fill="#C69BBD" stroke="black"
	xmlns="http://www.w3.org/2000/svg">
	<path
		d="M58.9465 31.4297C60.2437 31.9361 60.2108 33.7829 58.8965 34.2428L41.503 40.3298C40.8143 40.5708 40.2653 41.1006 39.9999 41.7803L33.2986 58.9465C32.7923 60.2437 30.9455 60.2108 30.4855 58.8965L24.3986 41.503C24.1576 40.8143 23.6277 40.2653 22.948 39.9999L5.7818 33.2986C4.48467 32.7922 4.5175 30.9455 5.83181 30.4855L23.2254 24.3986C23.914 24.1575 24.4631 23.6277 24.7284 22.948L31.4297 5.78179C31.9361 4.48466 33.7829 4.51749 34.2428 5.8318L40.3298 23.2253C40.5708 23.914 41.1006 24.4631 41.7803 24.7284L58.9465 31.4297Z"
	/>
</svg>