<svg width="131" height="30" viewBox="0 0 131 30" fill="none" xmlns="http://www.w3.org/2000/svg">
<g clip-path="url(#clip0_1_2923)">
<path d="M13.501 7.96564C14.3968 7.97609 15.2784 8.22844 16.0762 8.70279C16.874 9.17715 17.5662 9.86057 18.0984 10.6992L18.1935 10.8099C18.2411 10.8653 18.2887 10.9207 18.2887 10.983C18.6208 11.4714 19.0452 11.8642 19.529 12.1306C20.0128 12.3971 20.5429 12.5301 21.0781 12.5193C22.0245 12.5193 22.9322 12.0818 23.6014 11.3031C24.2706 10.5244 24.6466 9.46828 24.6466 8.36704C24.6488 7.34109 24.3174 6.35216 23.7188 5.59887C21.2744 2.06946 18.366 0.0209961 13.4474 0.0209961C5.76919 0.0209961 -0.00585938 6.24938 -0.00585938 14.9345C-0.00585938 23.758 5.76919 29.9587 13.495 29.9587C18.4374 29.9587 21.3219 27.9657 23.7664 24.7823C24.2165 24.194 24.5102 23.4664 24.612 22.6878C24.7137 21.9091 24.619 21.1128 24.3395 20.3955C24.0599 19.6782 23.6074 19.0708 23.037 18.6468C22.4665 18.2229 21.8026 18.0006 21.1257 18.0071C20.6232 18.0088 20.1269 18.1371 19.671 18.3832C19.2152 18.6293 18.8106 18.9873 18.485 19.4328C17.2955 20.8168 15.993 22.111 13.5426 22.111C10.0217 22.111 8.01735 19.149 8.01735 14.9414C7.96977 10.8999 9.9265 8.02102 13.495 8.02102" fill="#220904"/>
<path d="M46.8127 1.84779C45.5875 1.10731 44.7608 0.934293 42.9468 1.1073C40.6022 1.45162 38.4287 2.71616 36.7852 4.69207C36.7288 3.48622 36.2709 2.35337 35.5086 1.53381C34.7464 0.714252 33.7397 0.272479 32.7021 0.302188C31.6646 0.331897 30.6778 0.830752 29.9511 1.69294C29.2244 2.55514 28.8149 3.71284 28.8096 4.92046V25.2388C28.8361 26.4509 29.2714 27.6023 30.0215 28.444C30.7716 29.2857 31.7762 29.7502 32.8182 29.7371C33.8651 29.7374 34.8705 29.2612 35.6196 28.4103C36.3687 27.5594 36.802 26.4012 36.8268 25.1834V19.6471C36.8268 12.1315 40.5916 10.2007 42.697 10.1385C43.2323 10.1385 44.6538 10.7613 45.7778 10.5398C46.2955 10.4331 46.7898 10.2083 47.2326 9.87858C47.6754 9.54883 48.0578 9.12055 48.3579 8.61832C48.658 8.1161 48.8698 7.54982 48.9813 6.95204C49.0927 6.35426 49.1016 5.73676 49.0073 5.13499C48.8715 4.43042 48.6039 3.76933 48.2236 3.19878C47.8432 2.62823 47.3595 2.16224 46.8068 1.83396" fill="#220904"/>
<path d="M64.311 22.3114C67.7843 22.3114 69.8362 19.3495 69.8897 15.0796C69.9433 10.8097 67.7843 7.84777 64.311 7.84777C60.8376 7.84777 58.6846 10.7474 58.6846 15.0796C58.6846 19.2941 60.8376 22.3114 64.311 22.3114ZM64.311 0C71.9416 0 77.8594 6.22837 77.8594 15.0242C77.8594 23.8201 71.9119 29.9377 64.311 29.9377C56.71 29.9377 50.709 23.7093 50.709 15.0242C50.709 6.33909 56.6565 0 64.311 0Z" fill="#220904"/>
<path d="M95.4873 7.96564C96.3831 7.97609 97.2647 8.22844 98.0625 8.70279C98.8603 9.17715 99.5525 9.86057 100.085 10.6992L100.18 10.8099C100.227 10.8653 100.275 10.9207 100.275 10.983C100.607 11.4714 101.032 11.8642 101.515 12.1306C101.999 12.3971 102.529 12.5301 103.064 12.5193C104.011 12.5193 104.918 12.0818 105.588 11.3031C106.257 10.5244 106.633 9.46828 106.633 8.36704C106.635 7.34109 106.304 6.35216 105.705 5.59887C103.261 2.06946 100.352 0.0209961 95.4813 0.0209961C87.8031 0.0209961 81.9805 6.24938 81.9805 14.9345C81.9805 23.758 87.7555 29.9587 95.4813 29.9587C100.424 29.9587 103.308 27.9657 105.753 24.7823C106.203 24.194 106.497 23.4664 106.598 22.6878C106.7 21.9091 106.605 21.1128 106.326 20.3955C106.046 19.6782 105.594 19.0708 105.023 18.6468C104.453 18.2229 103.789 18.0006 103.112 18.0071C102.609 18.0088 102.113 18.1371 101.657 18.3832C101.201 18.6293 100.797 18.9873 100.471 19.4328C99.2818 20.8168 97.9793 22.111 95.4813 22.111C91.9604 22.111 89.9561 19.149 89.9561 14.9414C90.0037 10.8999 91.9604 8.02102 95.4813 8.02102" fill="#220904"/>
<path d="M122.929 11.3843C126.498 12.3532 131 14.284 131 20.4362C131 25.675 128.651 30.0002 120.889 30.0002C116.131 30.0002 113.062 28.2909 110.909 26.0694L110.761 25.8964C110.665 25.8411 110.612 25.7234 110.564 25.6681C110.517 25.6127 110.469 25.4951 110.416 25.4397C110.334 25.3407 110.268 25.2259 110.219 25.1006C110.194 25.0704 110.177 25.0317 110.172 24.9899C109.849 24.3209 109.722 23.548 109.81 22.7878C109.898 22.0276 110.196 21.3212 110.66 20.7753C111.224 20.0954 111.994 19.6973 112.806 19.665C113.618 19.6327 114.41 19.9688 115.013 20.6023L114.965 20.547C116.503 21.9959 118.417 22.7982 120.396 22.8238C122.941 22.8238 123.774 22.2563 123.774 21.0591C123.774 19.4674 122.21 19.4674 118.195 18.2909C114.817 17.2667 111.058 15.1006 111.058 9.12827C111.058 2.63692 115.316 0.0209961 120.574 0.0209961C124.636 0.0209961 127.521 1.55734 129.525 3.95181C129.848 4.27645 130.107 4.67808 130.284 5.12945C130.462 5.58081 130.554 6.07133 130.554 6.56772C130.556 7.039 130.477 7.50596 130.323 7.94171C130.168 8.37746 129.942 8.77338 129.655 9.10662C129.369 9.43986 129.028 9.70384 128.654 9.88335C128.279 10.0629 127.878 10.1543 127.473 10.1525C127.084 10.1626 126.698 10.0821 126.336 9.9157C125.975 9.74931 125.645 9.5004 125.368 9.18364C124.041 7.84981 122.362 7.0853 120.61 7.01755C118.849 7.01755 117.969 7.58733 117.969 8.72689C117.969 10.3186 119.533 10.547 122.911 11.4051" fill="#220904"/>
</g>
<defs>
<clipPath id="clip0_1_2923">
<rect width="131" height="30" fill="white"/>
</clipPath>
</defs>
</svg>
