<svg width="275" height="64" viewBox="0 0 275 64" fill="none" xmlns="http://www.w3.org/2000/svg">
<g clip-path="url(#clip0_553_7965)">
<path d="M28.3423 16.993C30.223 17.0153 32.0735 17.5536 33.7483 18.5656C35.423 19.5776 36.8762 21.0355 37.9934 22.8246L38.1931 23.0609C38.293 23.179 38.3929 23.2971 38.3929 23.4299C39.09 24.472 39.981 25.3099 40.9966 25.8784C42.0122 26.4468 43.125 26.7306 44.2485 26.7075C46.2353 26.7075 48.1407 25.7741 49.5455 24.1129C50.9504 22.4517 51.7396 20.1986 51.7396 17.8493C51.7443 15.6606 51.0485 13.5509 49.7919 11.9439C44.6605 4.41449 38.5552 0.0444336 28.2299 0.0444336C12.1115 0.0444336 -0.0117188 13.3317 -0.0117188 31.8599C-0.0117188 50.6834 12.1115 63.9116 28.3298 63.9116C38.705 63.9116 44.7604 59.6597 49.8918 52.8685C50.8367 51.6136 51.4534 50.0614 51.6669 48.4002C51.8805 46.739 51.6818 45.0403 51.0949 43.51C50.508 41.9798 49.5581 40.6839 48.3606 39.7795C47.1631 38.8751 45.7693 38.401 44.3484 38.4149C43.2935 38.4184 42.2517 38.692 41.2948 39.217C40.3378 39.7421 39.4884 40.5059 38.8049 41.4562C36.3079 44.4089 33.5736 47.1698 28.4297 47.1698C21.0384 47.1698 16.8309 40.8509 16.8309 31.8747C16.731 23.2528 20.8387 17.1111 28.3298 17.1111" fill="#220904"/>
<path d="M98.2733 3.94189C95.7013 2.36219 93.9659 1.99309 90.1579 2.36218C85.236 3.09673 80.6733 5.79441 77.2232 10.0097C77.1048 7.4372 76.1436 5.02045 74.5434 3.27206C72.9432 1.52367 70.8299 0.581224 68.6518 0.644603C66.4738 0.707983 64.4023 1.7722 62.8768 3.61155C61.3512 5.4509 60.4917 7.92066 60.4805 10.4969V53.8427C60.5361 56.4286 61.45 58.8848 63.0246 60.6805C64.5992 62.4761 66.7081 63.467 68.8955 63.439C71.0931 63.4397 73.2038 62.4239 74.7764 60.6086C76.3489 58.7932 77.2584 56.3225 77.3106 53.7246V41.9137C77.3106 25.8805 85.2137 21.7615 89.6335 21.6286C90.7572 21.6286 93.7412 22.9573 96.1009 22.4849C97.1875 22.2571 98.2253 21.7777 99.1548 21.0742C100.084 20.3708 100.887 19.4571 101.517 18.3857C102.147 17.3143 102.592 16.1062 102.826 14.831C103.06 13.5557 103.078 12.2384 102.88 10.9546C102.595 9.45149 102.034 8.04118 101.235 6.824C100.437 5.60682 99.4211 4.61271 98.2608 3.91238" fill="#220904"/>
<path d="M135.003 47.5977C142.294 47.5977 146.602 41.2789 146.714 32.1698C146.827 23.0607 142.294 16.7419 135.003 16.7419C127.712 16.7419 123.192 22.9278 123.192 32.1698C123.192 41.1608 127.712 47.5977 135.003 47.5977ZM135.003 0C151.022 0 163.444 13.2872 163.444 32.0517C163.444 50.8161 150.959 63.8672 135.003 63.8672C119.047 63.8672 106.449 50.5799 106.449 32.0517C106.449 13.5234 118.934 0 135.003 0Z" fill="#220904"/>
<path d="M200.452 16.993C202.332 17.0153 204.183 17.5536 205.858 18.5656C207.532 19.5776 208.986 21.0355 210.103 22.8246L210.302 23.0609C210.402 23.179 210.502 23.2971 210.502 23.4299C211.199 24.472 212.09 25.3099 213.106 25.8784C214.122 26.4468 215.234 26.7306 216.358 26.7075C218.345 26.7075 220.25 25.7741 221.655 24.1129C223.06 22.4517 223.849 20.1986 223.849 17.8493C223.854 15.6606 223.158 13.5509 221.901 11.9439C216.77 4.41449 210.665 0.0444336 200.439 0.0444336C184.321 0.0444336 172.098 13.3317 172.098 31.8599C172.098 50.6834 184.221 63.9116 200.439 63.9116C210.814 63.9116 216.87 59.6597 222.001 52.8685C222.946 51.6136 223.563 50.0614 223.776 48.4002C223.99 46.739 223.791 45.0403 223.204 43.51C222.617 41.9798 221.667 40.6839 220.47 39.7795C219.272 38.8751 217.879 38.401 216.458 38.4149C215.403 38.4184 214.361 38.692 213.404 39.217C212.447 39.7421 211.598 40.5059 210.914 41.4562C208.417 44.4089 205.683 47.1698 200.439 47.1698C193.048 47.1698 188.84 40.8509 188.84 31.8747C188.94 23.2528 193.048 17.1111 200.439 17.1111" fill="#220904"/>
<path d="M258.058 24.2862C265.549 26.3531 275 30.4721 275 43.5969C275 54.7729 270.068 64.0001 253.775 64.0001C243.787 64.0001 237.345 60.3536 232.825 55.6145L232.513 55.2454C232.313 55.1273 232.201 54.8763 232.101 54.7581C232.001 54.64 231.901 54.3891 231.789 54.271C231.617 54.0598 231.478 53.815 231.377 53.5475C231.323 53.4832 231.288 53.4006 231.277 53.3114C230.6 51.8842 230.333 50.2354 230.518 48.6136C230.703 46.9918 231.328 45.4849 232.3 44.3203C233.486 42.8697 235.102 42.0205 236.807 41.9516C238.512 41.8827 240.173 42.5997 241.44 43.9512L241.34 43.8332C244.568 46.9242 248.585 48.6357 252.739 48.6903C258.083 48.6903 259.83 47.4798 259.83 44.9257C259.83 41.53 256.547 41.53 248.119 39.0202C241.028 36.8352 233.137 32.2142 233.137 19.4733C233.137 5.62506 242.076 0.0444336 253.113 0.0444336C261.641 0.0444336 267.696 3.32198 271.904 8.43016C272.581 9.12273 273.125 9.97956 273.497 10.9425C273.87 11.9054 274.063 12.9518 274.064 14.0108C274.067 15.0162 273.902 16.0124 273.578 16.942C273.254 17.8716 272.778 18.7162 272.177 19.4271C271.576 20.138 270.861 20.7012 270.075 21.0841C269.289 21.4671 268.447 21.6622 267.596 21.6583C266.78 21.6799 265.969 21.5081 265.21 21.1531C264.451 20.7982 263.759 20.2672 263.176 19.5914C260.392 16.7459 256.867 15.1149 253.188 14.9704C249.493 14.9704 247.645 16.1859 247.645 18.617C247.645 22.0126 250.929 22.4998 258.02 24.3305" fill="#220904"/>
</g>
<defs>
<clipPath id="clip0_553_7965">
<rect width="275" height="64" fill="white"/>
</clipPath>
</defs>
</svg>
