<svg width="40" height="40" viewBox="0 0 40 40" fill="none" xmlns="http://www.w3.org/2000/svg">
<path d="M29.5256 21.1667H12.3224L11.2245 11.8333L32.3858 11.8077L32.5773 9.5H10.9492L10.9002 9.08933C10.7997 8.23836 10.3904 7.45385 9.75004 6.88445C9.10966 6.31506 8.28265 6.00036 7.42572 6H6V8.33333H7.42572C7.71149 8.33337 7.98731 8.43828 8.20086 8.62817C8.41441 8.81805 8.55084 9.07971 8.58427 9.3635L10.4335 25.0762C10.5338 25.9273 10.9429 26.7121 11.5833 27.2818C12.2237 27.8514 13.0509 28.1663 13.908 28.1667H29.3343V25.8333H13.908C13.622 25.8333 13.3461 25.7282 13.1325 25.5381C12.9189 25.3479 12.7826 25.086 12.7494 24.802L12.5966 23.5H31.4764L32.5264 10H30.1568L29.5256 21.1667Z" fill="black"/>
<path d="M14.1674 33.9999C15.4561 33.9999 16.5008 32.9552 16.5008 31.6666C16.5008 30.3779 15.4561 29.3333 14.1674 29.3333C12.8787 29.3333 11.834 30.3779 11.834 31.6666C11.834 32.9552 12.8787 33.9999 14.1674 33.9999Z" fill="black"/>
<path d="M25.8334 33.9999C27.1221 33.9999 28.1669 32.9552 28.1669 31.6666C28.1669 30.3779 27.1221 29.3333 25.8334 29.3333C24.5447 29.3333 23.5 30.3779 23.5 31.6666C23.5 32.9552 24.5447 33.9999 25.8334 33.9999Z" fill="black"/>
</svg>
