<svg width="40" height="40" viewBox="0 0 40 40" fill="none" stroke="black"
	xmlns="http://www.w3.org/2000/svg">
	<path
		d="M18.126 10.3177L19 11.8901L19.874 10.3177C20.4243 9.32777 21.2276 8.49937 22.203 7.91662C23.1701 7.33885 24.2724 7.02296 25.4003 7.0004C27.2201 7.08682 28.9322 7.88288 30.1664 9.21571C31.407 10.5556 32.064 12.329 31.9951 14.1485L31.9944 14.1674V14.1863C31.9944 15.893 31.296 17.7505 30.1373 19.6372C28.9852 21.5133 27.4273 23.3384 25.8265 24.9595C22.6265 28.2 19.353 30.5278 19.0981 30.7076C19.098 30.7077 19.0979 30.7077 19.0978 30.7078L19 30.7767L18.9045 30.7095C18.9041 30.7092 18.9037 30.7089 18.9033 30.7086C18.6385 30.5207 15.3694 28.1946 12.1735 24.9586C10.5726 23.3376 9.01479 21.5128 7.86264 19.6368C6.70402 17.7503 6.00565 15.893 6.00565 14.1863V14.1674L6.00493 14.1485C5.93598 12.329 6.59295 10.5556 7.83363 9.21571C9.06779 7.88288 10.7799 7.08682 12.5997 7.0004C13.7276 7.02296 14.8299 7.33885 15.797 7.91662C16.7724 8.49937 17.5757 9.32777 18.126 10.3177Z"
		stroke="black" stroke-width="2" />
</svg>