<svg width="40" height="40" viewBox="0 0 40 40" fill="none" xmlns="http://www.w3.org/2000/svg">
<path d="M30 33H27.7778V27.5368C27.7769 26.6874 27.4305 25.8731 26.8145 25.2725C26.1985 24.672 25.3633 24.3342 24.4922 24.3333H15.5078C14.6367 24.3342 13.8015 24.672 13.1855 25.2725C12.5695 25.8731 12.2231 26.6874 12.2222 27.5368V33H10V27.5368C10.0018 26.113 10.5826 24.7481 11.6151 23.7414C12.6477 22.7347 14.0476 22.1684 15.5078 22.1667H24.4922C25.9524 22.1684 27.3523 22.7347 28.3849 23.7414C29.4174 24.7481 29.9982 26.113 30 27.5368V33ZM20 20C18.6815 20 17.3925 19.6188 16.2962 18.9046C15.1999 18.1903 14.3454 17.1752 13.8408 15.9874C13.3362 14.7997 13.2042 13.4928 13.4614 12.2319C13.7187 10.971 14.3536 9.81285 15.286 8.90381C16.2183 7.99477 17.4062 7.3757 18.6994 7.1249C19.9926 6.87409 21.333 7.00282 22.5512 7.49479C23.7694 7.98676 24.8106 8.81988 25.5431 9.8888C26.2757 10.9577 26.6667 12.2144 26.6667 13.5C26.6649 15.2234 25.962 16.8757 24.7121 18.0943C23.4622 19.3129 21.7676 19.9983 20 20ZM20 9.16667C19.121 9.16667 18.2617 9.42081 17.5308 9.89697C16.7999 10.3731 16.2303 11.0499 15.8939 11.8417C15.5575 12.6335 15.4695 13.5048 15.641 14.3454C15.8124 15.186 16.2357 15.9581 16.8573 16.5641C17.4789 17.1702 18.2708 17.5829 19.1329 17.7501C19.9951 17.9173 20.8887 17.8315 21.7008 17.5035C22.5129 17.1755 23.2071 16.6201 23.6954 15.9075C24.1838 15.1949 24.4444 14.3571 24.4444 13.5C24.4444 12.3507 23.9762 11.2485 23.1427 10.4359C22.3092 9.62322 21.1787 9.16667 20 9.16667Z" fill="black"/>
</svg>
